<svg height="512" viewBox="0 0 349.648 349.648" width="512" xmlns="http://www.w3.org/2000/svg" fill="#fff"><path d="M298.744 334.145h35.405a5.895 5.895 0 0 0 5.877-5.393l8.072-92.827a412.617 412.617 0 0 0-1.634-86.861c-4.054-32.408-31.741-56.855-64.408-56.855H67.589c-32.667 0-60.354 24.447-64.408 56.861a413.02 413.02 0 0 0-1.635 86.861l8.072 92.827a5.906 5.906 0 0 0 5.883 5.388h35.405a5.904 5.904 0 0 0 5.901-5.901v-10.734l99.341 16.558a5.872 5.872 0 0 0 4.243-.909l14.428-9.618 14.428 9.618c.98.643 2.124.985 3.281.985.324 0 .649-.024.974-.083l99.341-16.552v10.734a5.903 5.903 0 0 0 5.901 5.901zM71.903 104.011h27.162c-8.238 14.298-12.752 30.673-12.752 47.207v35.405H50.907v-10.557c0-25.639 7.294-50.464 20.996-72.055zm226.841 72.056l.006 10.557h-35.411v-35.405c0-16.534-4.514-32.909-12.752-47.207h27.162c13.702 21.59 20.995 46.415 20.995 72.055zm-47.207-24.849v35.405h-11.802v-35.405c0-16.534-4.514-32.909-12.752-47.207h9.654c9.59 13.779 14.9 30.407 14.9 47.207zm0 64.91h-11.802v-17.703h11.802zm-23.603-64.91v35.405H209.7c-2.821-16.717-17.36-29.504-34.874-29.504s-32.048 12.787-34.874 29.504h-18.234v-35.405c0-16.8 5.311-33.428 14.9-47.207h76.416c9.589 13.779 14.9 30.407 14.9 47.207zm-39.04 60.183c-3.234-4.272-8.308-7.075-14.068-7.075s-10.834 2.803-14.068 7.075a23.479 23.479 0 0 1-8.733-12.976h45.608a23.53 23.53 0 0 1-8.739 12.976zm3.634 28.33v35.405h-35.405v-35.405zm-23.603-11.802v-5.901c0-3.251 2.65-5.901 5.901-5.901s5.901 2.65 5.901 5.901v5.901zm-16.865-41.306c2.638-10.15 11.802-17.703 22.766-17.703s20.128 7.553 22.766 17.703zm-42.144-35.405v35.405H98.114v-35.405c0-16.8 5.311-33.428 14.9-47.207h9.654c-8.238 14.298-12.752 30.673-12.752 47.207zm0 64.91H98.114v-17.703h11.802zm-58.714-17.703h35.11v94.414H55.929zm46.912 29.504h11.802v64.91H98.114zm23.604-29.504h18.24a35.273 35.273 0 0 0 17.166 24.689v4.815h-5.901a5.904 5.904 0 0 0-5.901 5.901v47.207a5.904 5.904 0 0 0 5.901 5.901h47.207a5.904 5.904 0 0 0 5.901-5.901V233.83a5.904 5.904 0 0 0-5.901-5.901h-5.901v-4.815a35.27 35.27 0 0 0 17.166-24.689h18.24v94.414H121.718zm118.018 29.504h11.802v64.91h-11.802zm23.603-29.504h35.104l-4.721 94.414h-30.384v-94.414zm65.399 123.919h-24.093v-11.678l5.606-112.241h27.48c.053 12.179-.336 24.365-1.387 36.485zm6.019-171.81c1.493 11.967 2.337 24.022 2.744 36.09h-26.955v-10.557c0-25.037-6.367-49.373-18.446-71.088 22.17 4.278 39.766 22.429 42.657 45.555zM57.552 104.979c-12.079 21.715-18.446 46.05-18.446 71.088l.006 10.557H12.15c.407-12.073 1.251-24.123 2.744-36.09 2.892-23.126 20.488-41.277 42.658-45.555zM20.913 322.344l-7.606-87.439c-1.056-12.12-1.446-24.3-1.387-36.479h27.475l5.612 112.241v11.678H20.913zm172.949-.301l-15.761-10.509a5.895 5.895 0 0 0-6.544 0l-15.761 10.509-99.229-16.54-.047-.862h236.613l-.041.862z"/><path d="M168.925 251.533h11.802v11.802h-11.802zM21.403 163.02h11.802v11.802H21.403zm0 47.207h11.802v11.802H21.403zm0 47.207h11.802v11.802H21.403zm295.044-94.414h11.802v11.802h-11.802zm0 47.207h11.802v11.802h-11.802zm0 47.207h11.802v11.802h-11.802zM3.7 56.804h11.802v11.802H3.7zm11.802 11.802h11.802v11.802H15.502zm11.802-11.802h11.802v11.802H27.304zM15.502 45.002h11.802v11.802H15.502zm241.936 11.802h11.802v11.802h-11.802zm11.802 11.802h11.802v11.802H269.24zm11.802-11.802h11.802v11.802h-11.802zM269.24 45.002h11.802v11.802H269.24zm41.306-5.901h11.802v11.802h-11.802zm-17.703-23.603h11.802V27.3h-11.802zM56.808 68.606H68.61v11.802H56.808zm0-47.207H68.61v11.802H56.808z"/></svg>