<svg height="512" viewBox="0 0 355.168 355.168" width="512" xmlns="http://www.w3.org/2000/svg" fill="#fff"><path d="M354.335 177.389c-1.286-16.139-7.6-31.151-17.425-43.23v-15.584c0-16.269-13.236-29.504-29.504-29.504H272c-11.819 0-22.305 7.093-26.932 17.703h-50.11c-2.278-19.219-17.431-35.972-37.429-40.256-15.732-3.375-27.15-17.496-27.15-33.588V.557h-11.802V32.93c0 21.615 15.342 40.592 36.479 45.118 14.611 3.133 25.805 14.971 28.023 28.72h-72.976c-4.626-10.61-15.112-17.703-26.932-17.703H47.766c-16.269 0-29.504 13.236-29.504 29.504v15.59C8.437 146.238 2.123 161.25.837 177.389l-.277-.006c-.52 15.106-4.415 148.254 18.882 172.371 3.883 4.013 7.919 4.856 10.622 4.856 61.711 0 97.069-86.117 104.481-106.216h86.082c7.411 20.098 42.77 106.216 104.481 106.216 2.703 0 6.739-.844 10.616-4.856 23.297-24.117 19.408-157.264 18.883-172.371zM272 100.872h35.405c9.76 0 17.703 7.943 17.703 17.703v3.9c-9.825-7.884-21.544-13.454-34.426-15.62a6.057 6.057 0 0 0-.98-.083h-30.791c3.264-3.651 7.961-5.9 13.089-5.9zm-224.234 0h35.405c5.128 0 9.825 2.248 13.088 5.901h-30.79c-.33 0-.655.03-.98.083-12.882 2.166-24.601 7.73-34.426 15.62v-3.9c0-9.761 7.943-17.704 17.703-17.704zm18.204 17.703h223.224c30.602 5.388 53.615 33.21 53.615 64.91 0 35.789-29.121 64.91-64.91 64.91-12.728 0-25.091-3.741-35.742-10.816a5.906 5.906 0 0 0-3.263-.985h-122.62a5.892 5.892 0 0 0-3.263.985c-10.651 7.075-23.013 10.816-35.742 10.816-35.789 0-64.91-29.121-64.91-64.91.002-31.7 23.015-59.522 53.611-64.91zM30.063 342.808c-.224 0-.915 0-2.13-1.257-11.271-11.672-15.484-67.689-16.05-118.159 13.495 22.028 37.718 36.804 65.388 36.804 14.457 0 28.507-4.072 40.751-11.802h3.847c-9.453 23.822-41.701 94.414-91.806 94.414zm297.175-1.256c-1.216 1.257-1.906 1.257-2.13 1.257-50.039 0-82.329-70.592-91.8-94.414h3.841c12.244 7.73 26.294 11.802 40.751 11.802 27.675 0 51.898-14.776 65.388-36.81-.566 50.47-4.774 106.493-16.05 118.165z"/><path d="M65.646 161.309a5.895 5.895 0 0 0 5.724 4.473h11.802a5.901 5.901 0 0 0 5.724-4.473l5.901-23.604a5.889 5.889 0 0 0-1.074-5.057 5.89 5.89 0 0 0-4.65-2.272H65.469a5.891 5.891 0 0 0-4.65 2.272 5.893 5.893 0 0 0-1.074 5.057zm15.867-19.13l-2.95 11.802h-2.585l-2.95-11.802zm7.382 57.58a5.901 5.901 0 0 0-5.724-4.473H71.37a5.901 5.901 0 0 0-5.724 4.473l-5.901 23.604a5.889 5.889 0 0 0 1.074 5.057 5.89 5.89 0 0 0 4.65 2.272h23.604a5.891 5.891 0 0 0 4.65-2.272 5.893 5.893 0 0 0 1.074-5.057zM73.028 218.89l2.95-11.802h2.585l2.95 11.802zm240.278-17.703c9.76 0 17.703-7.943 17.703-17.703s-7.943-17.703-17.703-17.703-17.703 7.943-17.703 17.703c0 9.761 7.943 17.703 17.703 17.703zm0-23.603c3.251 0 5.901 2.644 5.901 5.901s-2.65 5.901-5.901 5.901-5.901-2.644-5.901-5.901a5.906 5.906 0 0 1 5.901-5.901zm-64.91 23.603c9.76 0 17.703-7.943 17.703-17.703s-7.943-17.703-17.703-17.703-17.703 7.943-17.703 17.703c0 9.761 7.943 17.703 17.703 17.703zm0-23.603c3.251 0 5.901 2.644 5.901 5.901s-2.649 5.901-5.901 5.901a5.907 5.907 0 0 1-5.901-5.901 5.907 5.907 0 0 1 5.901-5.901zm32.455-11.802c9.76 0 17.703-7.943 17.703-17.703s-7.943-17.703-17.703-17.703-17.703 7.943-17.703 17.703 7.943 17.703 17.703 17.703zm0-23.603c3.251 0 5.901 2.644 5.901 5.901s-2.65 5.901-5.901 5.901-5.901-2.644-5.901-5.901a5.906 5.906 0 0 1 5.901-5.901zm0 59.008c-9.76 0-17.703 7.943-17.703 17.703s7.943 17.703 17.703 17.703 17.703-7.943 17.703-17.703c-.001-9.76-7.943-17.703-17.703-17.703zm0 23.604c-3.251 0-5.901-2.644-5.901-5.901s2.65-5.901 5.901-5.901 5.901 2.644 5.901 5.901-2.65 5.901-5.901 5.901zM34.448 198.06l23.604-5.901a5.896 5.896 0 0 0 4.467-5.724v-11.802a5.909 5.909 0 0 0-4.467-5.724l-23.604-5.901c-1.758-.437-3.629-.047-5.063 1.074s-2.272 2.832-2.272 4.65v23.604c0 1.817.838 3.535 2.272 4.65a5.872 5.872 0 0 0 5.063 1.074zm4.467-21.768l11.802 2.95v2.585l-11.802 2.95zm53.108-1.659v11.802a5.908 5.908 0 0 0 4.467 5.724l23.604 5.901c.472.124.956.177 1.434.177a5.872 5.872 0 0 0 3.629-1.251 5.89 5.89 0 0 0 2.272-4.65v-23.604a5.891 5.891 0 0 0-2.272-4.65 5.873 5.873 0 0 0-5.063-1.074L96.49 168.91a5.907 5.907 0 0 0-4.467 5.723zm11.801 4.609l11.802-2.95v8.485l-11.802-2.95zm32.455-48.865h82.612v11.802h-82.612zm29.505 47.207h23.604v11.802h-23.604zm5.901 23.603h11.802v11.802h-11.802zm-17.703-47.207h47.207v11.802h-47.207z"/></svg>