<svg xmlns="http://www.w3.org/2000/svg"><circle cx="12" cy="11.998" r="11" fill="#8C9EFF"/><path d="M16.775 8.438s-1.361-1.066-2.969-1.188l-.145.29c1.454.355 2.12.865 2.817 1.491-1.2-.613-2.387-1.187-4.453-1.187s-3.252.574-4.453 1.187c.696-.626 1.49-1.192 2.816-1.491l-.144-.29c-1.687.16-2.969 1.188-2.969 1.188s-1.52 2.204-1.781 6.53c1.532 1.768 3.86 1.782 3.86 1.782l.486-.649a5.946 5.946 0 0 1-2.565-1.726c.961.727 2.412 1.484 4.75 1.484s3.789-.757 4.75-1.484a5.945 5.945 0 0 1-2.565 1.726l.487.649s2.327-.014 3.86-1.781c-.262-4.327-1.782-6.531-1.782-6.531zm-6.68 5.343c-.574 0-1.039-.531-1.039-1.187s.465-1.188 1.04-1.188c.573 0 1.038.532 1.038 1.188s-.465 1.187-1.039 1.187zm3.86 0c-.574 0-1.04-.531-1.04-1.187s.466-1.188 1.04-1.188c.574 0 1.039.532 1.039 1.188s-.466 1.187-1.04 1.187z" fill="#FFF"/><path d="M4.222 19.778A10.966 10.966 0 0 0 12 23c6.075 0 11-4.925 11-11 0-3.038-1.231-5.788-3.222-7.778L4.222 19.778z" fill="#231F20" opacity=".1"/></svg>