<svg xmlns="http://www.w3.org/2000/svg" overflow="visible"><path d="M31.848 0c4.993 0 9.744 1.144 14.007 3.2.67.302 1.34.663 2.008 1.024l-2.923 2.59-4.382-4.515-7.55 6.62-4.448-4.765-13.885 12.342 8.9 9.692-3.47 3 8.77 9.692-3.47 3.008L37.94 55.683l7.425-6.743 6.458 7.226c-1.28.963-2.68 1.928-4.2 2.77a32.11 32.11 0 0 1-15.712 4.09C14.3 63.026 0 48.883 0 31.486-.062 14.207 14.25 0 31.848 0zM26 29.558l7.612-6.743 6.822 7.525-7.614 6.742zm5.42 13.003l7.55-6.802 6.882 7.524-7.613 6.743zM20.584 16.736l7.6-6.743 6.82 7.525-7.613 6.742zm13.943-3.623L40.2 8.067l5.116 5.6-5.664 5.116zm10.1 23.177l5.673-5.047 5.116 5.657-5.664 5.06zm4.993 11.38l5.664-5.058 5.112 5.6-5.662 5.116zm2.315-26.007L55.7 18.29l3.4 3.734-3.774 3.37zm-4.872-11.137l3.775-3.43 3.412 3.792-3.778 3.37zM56.745 32.8l3.775-3.37L64 33.17l-3.835 3.37zm-17-8.368l5.664-5.057 5.114 5.598-5.662 5.058z" fill="#106db3"/></svg>