<svg height="512" viewBox="0 0 356.304 356.304" width="512" xmlns="http://www.w3.org/2000/svg" fill="#fff"><path d="M8.467 312.573l48.635-12.162-21.161 51.397 10.917 4.496 24.477-59.445 6.509-1.629 46.346 11.589 49.986 45.696c1.127 1.027 2.555 1.54 3.983 1.54s2.856-.513 3.983-1.546l49.986-45.696 46.345-11.583 6.509 1.629 24.477 59.445 10.917-4.496-21.161-51.397 48.635 12.162a5.886 5.886 0 0 0 6.349-2.461 5.9 5.9 0 0 0-.195-6.804l-44.257-59.009c-15.82-21.096-40.008-34.532-65.742-37.187l18.783-6.833a5.889 5.889 0 0 0 2.461-1.705l35.405-41.306a5.906 5.906 0 0 0 1.056-5.883L260.405 39.267a5.933 5.933 0 0 0-3.068-3.322L180.626.54a5.93 5.93 0 0 0-4.945 0L98.969 35.945a5.892 5.892 0 0 0-3.068 3.322L54.595 151.384a5.91 5.91 0 0 0 1.056 5.883l35.405 41.306a5.965 5.965 0 0 0 2.461 1.705l18.794 6.833c-25.917 2.738-49.992 16.163-65.753 37.187l-44.257 59.01a5.892 5.892 0 0 0-.195 6.804c1.393 2.083 3.948 3.074 6.361 2.461zm169.692 27.586l-30.13-27.545c2.714.277 5.334-1.245 6.225-3.9l23.904-71.719 23.904 71.719a5.908 5.908 0 0 0 5.6 4.036c.183 0 .372-.053.555-.071zM163.46 212.435l-44.31-60.927v-37.181l59.009-25.291 59.009 25.291v37.181l-44.31 60.927zm116.448 70.987a5.873 5.873 0 0 0-2.862 0l-65.512 16.375-2.266-6.792 69.135-21.273 49.567 16.522 6.621 8.834zm-45.691-65.087c25.864 0 50.571 12.351 66.09 33.045l15.218 20.293-35.187-11.731a5.946 5.946 0 0 0-3.6-.041l-71.2 21.91-19.19-57.575h9.512a6.01 6.01 0 0 0 2.018-.354l18.546-6.745zM66.874 152.216L106.139 45.64l72.02-33.234 72.02 33.24 39.264 106.576-32.142 37.5-45.307 16.475 35.848-49.296a5.945 5.945 0 0 0 1.127-3.476v-34.042l9.477 4.06 4.65-10.846-82.612-35.405a5.896 5.896 0 0 0-4.65 0l-82.612 35.405 4.65 10.846 9.477-4.06v34.042c0 1.245.395 2.461 1.127 3.47l35.848 49.296-45.307-16.475zM56.011 251.38c15.519-20.694 40.226-33.045 66.302-33.051l19.013-.673 17.113 6.225c.661.236 1.339.33 2.018.33v.024h9.512l-19.19 57.575-71.2-21.91a5.82 5.82 0 0 0-3.6.041l-35.187 11.731zm-27.663 36.881l49.567-16.522 69.135 21.273-2.266 6.792-65.512-16.375a5.873 5.873 0 0 0-2.862 0L21.721 297.1z"/><path d="M200.034 181.201l5.901-5.901-8.344-8.344-4.172 4.172h-38.863v11.802h41.306a5.885 5.885 0 0 0 4.172-1.729zm6.473-51.497a5.897 5.897 0 0 0 3.022-.183l17.703-5.901-3.735-11.194-16.216 5.405-27.964-5.594a5.916 5.916 0 0 0-2.319 0l-27.964 5.594-16.216-5.405-3.735 11.194 17.703 5.901a5.973 5.973 0 0 0 3.027.189l28.348-5.665zm-34.249 11.92h11.802v17.703h-11.802z"/></svg>